<svg width="1563" height="190" viewBox="0 0 1563 190" fill="none" xmlns="http://www.w3.org/2000/svg">
<path d="M9.78438e-05 189.475L69.6951 -0.00039947H96.4601L166.42 189.475H140.45L120.31 131.705H44.7851L24.3801 189.475H9.78438e-05ZM74.2001 48.7596L51.6751 112.36H113.685L91.9551 48.7596L83.4751 21.9946H82.9451C79.5884 32.5946 76.6734 41.5163 74.2001 48.7596ZM233.929 189.475L184.904 -0.00039947H209.814L239.759 123.225L246.914 155.29H247.444C250.447 141.863 253.097 130.998 255.394 122.695L289.579 -0.00039947H315.284L348.409 122.695L356.094 155.29H356.624C359.627 141.686 362.101 130.998 364.044 123.225L395.579 -0.00039947H419.694L366.959 189.475H344.169L309.454 55.9146L302.564 27.0296H302.034C299.384 38.8663 296.999 48.4946 294.879 55.9146L257.779 189.475H233.929ZM505.243 189.475L456.218 -0.00039947H481.128L511.073 123.225L518.228 155.29H518.758C521.762 141.863 524.412 130.998 526.708 122.695L560.893 -0.00039947H586.598L619.723 122.695L627.408 155.29H627.938C630.942 141.686 633.415 130.998 635.358 123.225L666.893 -0.00039947H691.008L638.273 189.475H615.483L580.768 55.9146L573.878 27.0296H573.348C570.698 38.8663 568.313 48.4946 566.193 55.9146L529.093 189.475H505.243ZM776.558 189.475L727.533 -0.00039947H752.443L782.388 123.225L789.543 155.29H790.073C793.076 141.863 795.726 130.998 798.023 122.695L832.208 -0.00039947H857.913L891.038 122.695L898.723 155.29H899.253C902.256 141.686 904.729 130.998 906.673 123.225L938.208 -0.00039947H962.323L909.588 189.475H886.798L852.083 55.9146L845.193 27.0296H844.663C842.013 38.8663 839.628 48.4946 837.508 55.9146L800.408 189.475H776.558ZM1010.3 189.475V-0.00039947H1079.2C1106.94 -0.00039947 1127.88 8.56793 1142.01 25.7046C1156.14 42.8413 1163.21 66.0729 1163.21 95.3996C1163.21 124.55 1155.88 147.516 1141.21 164.3C1126.55 181.083 1105.26 189.475 1077.35 189.475H1010.3ZM1034.15 168.54H1076.55C1118.07 168.54 1138.83 144.16 1138.83 95.3996C1138.83 45.5796 1118.69 20.6696 1078.41 20.6696H1034.15V168.54ZM1217.96 189.475V-0.00039947H1286.86C1314.59 -0.00039947 1335.53 8.56793 1349.66 25.7046C1363.8 42.8413 1370.86 66.0729 1370.86 95.3996C1370.86 124.55 1363.53 147.516 1348.87 164.3C1334.2 181.083 1312.91 189.475 1285 189.475H1217.96ZM1241.81 168.54H1284.21C1325.72 168.54 1346.48 144.16 1346.48 95.3996C1346.48 45.5796 1326.34 20.6696 1286.06 20.6696H1241.81V168.54ZM1425.61 189.475V-0.00039947H1559.43V20.9346H1449.46V80.8246H1549.36V100.965H1449.46V167.48H1562.61V189.475H1425.61Z" fill="#E9F7FC"/>
</svg>
