<svg width="62" height="62" viewBox="0 0 62 62" fill="none" xmlns="http://www.w3.org/2000/svg">
<rect width="61.7057" height="61.7057" rx="12.3411" fill="url(#paint0_linear_192_114)"/>
<path d="M15.1854 20.7172V13.7417C15.1854 12.696 16.4259 12.1465 17.2004 12.8491L30.0431 24.5003C30.5025 24.9171 31.2032 24.9171 31.6626 24.5003L44.5053 12.8491C45.2798 12.1465 46.5203 12.6961 46.5203 13.7417V20.7172C46.5203 21.0114 46.4126 21.2955 46.2176 21.5159L38.7936 29.9049C38.5648 30.1634 38.2362 30.3114 37.8911 30.3114H23.8146C23.4694 30.3114 23.1408 30.1634 22.9121 29.9049L15.488 21.5159C15.293 21.2955 15.1854 21.0114 15.1854 20.7172Z" fill="white"/>
<path d="M43.0372 48.727L27.9172 33.5581C27.1598 32.7983 27.6979 31.5021 28.7707 31.5021H37.5116C37.8319 31.5021 38.139 31.6296 38.3651 31.8565L44.7444 38.2563C44.9696 38.4822 45.096 38.7882 45.096 39.1071V47.8761C45.096 48.9508 43.7959 49.4881 43.0372 48.727Z" fill="white"/>
<path d="M28.8275 36.7462L24.4334 32.3042C23.987 31.8529 23.2671 31.8252 22.7873 32.2409L17.0257 37.2333C16.7615 37.4623 16.6097 37.7946 16.6097 38.1442V47.8603C16.6097 48.9372 17.9144 49.4734 18.6717 48.7079L28.8275 38.4413C29.292 37.9718 29.292 37.2158 28.8275 36.7462Z" fill="white"/>
<defs>
<linearGradient id="paint0_linear_192_114" x1="30.8528" y1="0" x2="30.8528" y2="61.7057" gradientUnits="userSpaceOnUse">
<stop stop-color="#414141"/>
<stop offset="1" stop-color="#171717"/>
</linearGradient>
</defs>
</svg>
